<?xml version="1.0" standalone="no"?>
<!DOCTYPE svg PUBLIC "-//W3C//DTD SVG 20010904//EN"
 "http://www.w3.org/TR/2001/REC-SVG-20010904/DTD/svg10.dtd">
<svg version="1.0" xmlns="http://www.w3.org/2000/svg"
 width="331.000000pt" height="390.000000pt" viewBox="0 0 331.000000 390.000000"
 preserveAspectRatio="xMidYMid meet">

<g transform="translate(0.000000,390.000000) scale(0.100000,-0.100000)"
fill="#000000" stroke="none">
<path d="M1640 3639 c-19 -5 -43 -6 -52 -3 -10 3 -18 1 -18 -5 0 -6 -9 -11
-19 -11 -11 0 -23 -5 -26 -11 -4 -6 -13 -8 -21 -5 -8 3 -23 0 -34 -6 -14 -9
-25 -9 -44 0 -22 10 -24 9 -19 -6 5 -14 3 -13 -9 2 -20 26 -45 28 -76 8 -14
-9 -31 -17 -37 -17 -15 0 -60 -53 -69 -82 -4 -11 -13 -27 -21 -33 -13 -11 -15
-7 -15 19 0 34 -11 39 -30 16 -7 -8 -23 -15 -35 -15 -12 0 -42 -19 -68 -43
-25 -23 -51 -41 -56 -39 -6 2 -14 -3 -17 -12 -3 -9 -10 -14 -14 -11 -14 9 -40
-7 -40 -24 0 -24 -39 -103 -48 -97 -4 2 -6 -13 -4 -34 5 -49 -11 -58 -38 -20
l-22 31 -29 -56 c-16 -31 -30 -72 -32 -91 -1 -25 -6 -33 -16 -29 -12 5 -12 2
1 -12 14 -16 58 -96 58 -106 0 -2 -11 -16 -26 -32 -30 -32 -25 -39 29 -44 5
-1 6 -9 2 -20 -4 -15 -1 -18 19 -14 21 4 23 2 19 -21 -3 -14 -1 -26 5 -26 19
0 22 -50 7 -137 -15 -88 -10 -165 14 -211 7 -15 17 -67 26 -139 2 -13 -1 -26
-7 -29 -5 -3 -1 -12 10 -20 11 -8 27 -34 36 -60 13 -39 13 -50 2 -82 -30 -80
-26 -142 8 -129 18 7 32 -30 23 -63 -3 -10 -2 -20 3 -22 4 -2 10 -15 13 -30 5
-20 3 -28 -10 -31 -11 -3 -8 -5 9 -6 23 -1 29 -7 39 -43 11 -45 42 -107 71
-147 15 -20 18 -46 18 -184 0 -88 2 -158 5 -155 3 2 6 24 7 49 1 24 3 38 6 31
4 -14 48 -16 57 -2 3 5 1 10 -4 10 -6 0 -11 7 -11 15 0 8 4 15 9 15 12 0 41
-28 41 -40 0 -4 13 -13 29 -20 20 -8 31 -21 35 -41 3 -17 12 -29 21 -29 8 0
15 -4 15 -10 0 -5 12 -10 26 -10 14 0 23 -4 19 -9 -3 -5 -1 -12 5 -16 5 -3 10
-1 10 6 0 7 8 6 25 -5 23 -15 27 -15 61 5 34 19 43 20 101 9 34 -7 74 -9 88
-6 14 4 25 2 25 -3 0 -12 66 -6 120 12 25 9 57 18 73 21 17 4 27 13 27 24 0
17 88 92 123 105 9 4 29 2 43 -4 26 -9 26 -8 21 21 -5 23 -2 32 13 40 25 13
27 -5 3 -19 -17 -9 -17 -10 -1 -16 10 -4 15 -11 12 -16 -3 -5 0 -9 5 -9 6 0
11 7 11 15 0 8 4 15 8 15 5 0 7 22 6 49 -2 28 1 53 6 56 6 3 10 23 10 43 0 20
12 64 26 97 50 115 56 137 43 149 -7 6 -10 7 -7 1 3 -5 1 -21 -5 -35 -5 -14
-12 -33 -13 -43 -5 -22 -45 -85 -75 -117 -21 -23 -86 -60 -104 -60 -3 0 -14
-7 -23 -17 -15 -15 -17 -15 -22 3 -6 22 -29 25 -48 7 -7 -7 -20 -13 -28 -13
-8 0 -14 -4 -14 -9 0 -13 -58 -41 -62 -30 -2 5 -14 9 -28 9 -108 -1 -244 6
-262 14 -9 4 -26 3 -37 -4 -12 -6 -21 -7 -20 -3 4 23 -3 25 -14 4 -7 -15 -26
-28 -46 -33 -28 -8 -37 -6 -55 11 -12 12 -27 21 -32 21 -5 0 -20 7 -33 16 -16
12 -19 19 -11 24 8 5 7 9 -4 13 -9 4 -16 2 -16 -3 0 -5 -18 -8 -41 -7 -32 1
-48 9 -82 41 -23 23 -45 41 -50 41 -10 0 -58 95 -60 120 -2 11 -10 36 -19 55
-28 58 -36 135 -38 351 -1 215 4 245 43 288 12 13 16 21 9 17 -29 -17 10 29
47 56 41 30 41 27 44 147 2 76 4 84 24 92 12 4 27 18 34 31 7 13 15 25 19 28
4 3 16 20 27 38 17 27 22 30 32 18 24 -29 87 -30 169 -2 65 22 213 68 302 95
15 4 52 0 93 -10 53 -13 80 -28 123 -65 31 -26 59 -56 64 -68 8 -21 70 -64 70
-49 1 25 30 -36 30 -63 0 -18 5 -45 12 -61 12 -27 14 -37 17 -58 0 -6 25 -36
55 -67 62 -65 60 -55 72 -333 9 -204 6 -277 -10 -303 -5 -8 -4 -18 2 -24 15
-15 25 9 24 53 -1 21 3 41 8 44 6 4 7 12 3 18 -7 12 -5 68 3 76 2 2 13 -4 24
-14 19 -18 20 -17 20 1 0 10 -9 33 -19 50 -28 46 -19 90 29 136 21 21 33 38
26 38 -14 0 -9 48 15 145 7 28 13 73 15 100 1 28 6 77 9 111 6 47 4 67 -9 93
-12 23 -14 36 -7 45 6 7 8 16 5 19 -3 3 -6 23 -6 44 0 50 -27 109 -73 155 -20
21 -34 42 -31 47 4 5 1 15 -6 23 -20 21 -20 38 1 38 11 0 23 5 27 12 4 6 3 9
-2 6 -5 -2 -19 5 -32 18 l-22 21 32 32 c17 17 38 31 46 31 8 0 12 7 10 18 -2
9 -10 16 -16 14 -7 -1 -12 8 -12 20 0 21 0 21 -15 2 -14 -19 -14 -19 -15 1 0
11 6 29 14 40 18 28 16 55 -5 55 -10 0 -20 4 -23 9 -3 5 -15 7 -26 4 -14 -4
-20 0 -20 11 0 9 -7 16 -15 16 -9 0 -18 6 -20 13 -3 6 -17 13 -31 13 -14 1
-33 9 -43 18 -10 9 -20 13 -24 10 -3 -4 -14 -4 -23 0 -13 5 -14 9 -4 20 9 12
6 15 -22 18 -22 2 -36 10 -44 25 -10 21 -11 21 -28 5 -14 -14 -18 -15 -25 -3
-5 7 -14 10 -20 7 -6 -4 -11 -2 -11 4 0 7 -8 9 -20 5 -11 -4 -20 -2 -20 4 0 6
-4 11 -10 11 -5 0 -10 -7 -10 -16 0 -14 -3 -14 -15 -4 -8 7 -15 20 -15 29 0
13 -9 17 -32 16 -23 0 -33 5 -33 15 -1 8 -6 14 -12 13 -6 -1 -24 1 -39 6 -16
4 -45 4 -64 0z m622 -321 c-7 -7 -12 -8 -12 -2 0 14 12 26 19 19 2 -3 -1 -11
-7 -17z m-1478 -244 c5 -14 4 -15 -9 -4 -17 14 -19 20 -6 20 5 0 12 -7 15 -16z
m163 -1066 c-3 -8 -6 -5 -6 6 -1 11 2 17 5 13 3 -3 4 -12 1 -19z"/>
<path d="M700 3106 c0 -8 4 -17 9 -20 5 -4 7 3 4 14 -6 23 -13 26 -13 6z"/>
<path d="M1885 2553 c-55 -14 -108 -32 -118 -41 -9 -8 -25 -16 -35 -17 -22 -1
-25 -6 -17 -27 7 -18 35 -25 35 -10 0 5 16 9 35 10 19 1 76 11 125 23 102 24
126 21 184 -22 42 -30 60 -31 34 -2 -8 10 -18 25 -21 35 -7 19 -90 78 -109 77
-7 0 -58 -12 -113 -26z"/>
<path d="M1154 2548 c-74 -55 -124 -144 -82 -144 10 0 18 8 18 18 0 9 17 29
37 43 47 32 117 33 234 5 88 -21 99 -19 99 10 0 16 -17 27 -55 36 -5 1 -32 9
-60 18 -27 9 -64 16 -82 16 -17 0 -35 5 -38 10 -10 16 -39 11 -71 -12z"/>
<path d="M1778 2420 c-20 -27 -48 -44 -33 -20 9 14 -11 12 -22 -2 -28 -36 -21
-120 10 -126 19 -4 24 32 7 43 -22 14 -10 43 20 47 l30 5 -20 -22 c-29 -31
-25 -35 28 -34 47 1 47 1 14 10 l-34 10 39 30 38 31 3 -29 c2 -15 8 -34 14
-40 8 -10 6 -13 -8 -13 -16 -1 -15 -3 6 -15 14 -7 29 -10 35 -5 11 9 77 6 93
-4 6 -3 29 1 51 10 49 19 52 39 15 83 -28 33 -65 46 -159 56 -33 3 -70 8 -82
11 -16 3 -28 -4 -45 -26z m196 -8 c2 -4 -14 -6 -37 -4 -68 5 -76 10 -20 11 28
0 54 -2 57 -7z m21 -52 c20 -22 10 -44 -26 -53 -16 -4 -19 -2 -13 11 4 9 8 27
8 40 1 27 8 28 31 2z m-55 6 c0 -3 -4 -8 -10 -11 -5 -3 -10 -1 -10 4 0 6 5 11
10 11 6 0 10 -2 10 -4z"/>
<path d="M1312 2420 c-34 -3 -62 -9 -61 -15 0 -5 -5 -11 -12 -14 -7 -2 -9 1
-4 9 15 24 -58 1 -98 -31 -31 -25 -41 -28 -52 -19 -11 9 -15 9 -15 1 0 -6 7
-14 15 -17 8 -4 15 -12 15 -18 0 -7 16 -25 37 -39 34 -24 38 -25 65 -11 15 8
28 12 28 9 0 -3 9 -1 20 5 14 8 26 8 40 0 14 -7 20 -7 20 0 0 5 8 10 18 10 13
0 14 2 3 9 -9 6 -10 11 -2 15 6 4 11 18 11 32 0 29 2 30 45 2 l34 -23 -32 -12
-32 -11 39 2 c22 1 41 7 43 13 5 13 -66 73 -86 73 -8 0 -11 3 -8 6 4 4 34 -6
67 -22 57 -28 72 -45 50 -59 -5 -3 -10 -14 -10 -25 0 -25 37 -15 46 12 9 30
-4 82 -27 106 -15 17 -30 22 -57 20 -20 -2 -65 -5 -100 -8z m129 -27 c13 -16
12 -17 -3 -4 -10 7 -18 15 -18 17 0 8 8 3 21 -13z m-211 -47 c0 -7 7 -19 15
-26 21 -17 10 -28 -21 -22 -30 6 -41 26 -24 47 16 19 30 19 30 1z"/>
<path d="M2378 2244 c-4 -3 0 -17 9 -30 13 -21 14 -35 5 -87 -5 -34 -8 -63 -7
-65 9 -10 36 104 33 140 -3 40 -22 61 -40 42z"/>
<path d="M850 2161 c0 -47 4 -72 14 -80 12 -10 15 -1 18 61 3 67 -3 87 -24 88
-5 0 -8 -31 -8 -69z"/>
<path d="M1451 2103 c-12 -14 -19 -28 -16 -31 6 -6 55 38 55 50 0 16 -19 7
-39 -19z"/>
<path d="M1488 2023 c-10 -2 -18 -8 -18 -13 0 -12 49 -22 73 -14 20 6 20 7 2
20 -19 14 -27 15 -57 7z"/>
<path d="M1657 2013 c-17 -16 -4 -25 28 -20 39 6 55 -6 28 -22 -16 -9 -16 -10
3 -11 12 0 28 7 35 16 11 14 10 18 -6 30 -19 14 -77 19 -88 7z"/>
<path d="M2310 2010 c0 -5 5 -10 10 -10 6 0 10 5 10 10 0 6 -4 10 -10 10 -5 0
-10 -4 -10 -10z"/>
<path d="M1465 1970 c16 -10 32 -17 35 -14 7 8 -31 34 -49 34 -10 0 -4 -8 14
-20z"/>
<path d="M1565 1960 c3 -5 13 -10 21 -10 8 0 12 5 9 10 -3 6 -13 10 -21 10 -8
0 -12 -4 -9 -10z"/>
<path d="M1615 1960 c-3 -5 -2 -10 4 -10 5 0 13 5 16 10 3 6 2 10 -4 10 -5 0
-13 -4 -16 -10z"/>
<path d="M1430 1914 c-139 -58 -153 -66 -177 -109 -27 -50 -41 -101 -24 -91 6
4 11 1 11 -7 0 -20 31 -17 55 5 11 11 35 26 53 35 29 14 35 14 50 1 20 -18 40
-13 62 14 23 29 200 38 253 13 40 -19 42 -22 27 -45 -7 -12 -36 -15 -142 -17
-73 -1 -137 -2 -141 -2 -5 -1 2 -14 15 -30 23 -29 23 -29 129 -27 106 2 130 8
170 48 8 8 23 19 34 26 11 6 14 12 8 12 -22 0 -14 19 11 26 27 6 84 -19 104
-47 18 -26 32 -24 32 4 0 12 2 38 3 57 4 46 -32 95 -76 105 -17 4 -35 7 -40 6
-4 0 -26 8 -50 19 -72 34 -108 41 -143 28 -18 -6 -35 -20 -37 -30 -6 -21 -37
-25 -37 -5 0 18 -33 47 -51 46 -8 0 -52 -16 -99 -35z m235 -43 c26 -2 17 -19
-16 -30 -45 -16 -81 -14 -108 6 -21 14 -22 17 -8 22 14 5 84 6 132 2z"/>
<path d="M2245 1860 c-3 -5 -1 -10 4 -10 6 0 11 5 11 10 0 6 -2 10 -4 10 -3 0
-8 -4 -11 -10z"/>
<path d="M2013 1399 c-28 -10 -38 -39 -13 -39 13 0 18 5 14 15 -7 17 -4 18 29
6 13 -5 29 -6 35 -2 18 11 -41 29 -65 20z"/>
<path d="M990 1205 c-23 -19 -51 -35 -61 -35 -21 0 -95 -34 -119 -55 -29 -26
-207 -95 -372 -145 -204 -61 -250 -79 -356 -136 l-82 -45 0 -395 0 -394 745 0
c656 0 745 2 745 15 0 8 5 15 10 15 6 0 10 -7 10 -15 0 -13 107 -15 900 -15
l900 0 0 244 0 244 -115 103 c-111 99 -260 202 -370 253 -147 69 -265 116
-292 116 -17 0 -36 7 -43 15 -7 8 -18 15 -24 15 -10 0 -104 56 -181 109 -68
46 -116 73 -121 69 -2 -3 12 -22 33 -42 37 -36 38 -38 38 -109 0 -61 -5 -80
-30 -126 -54 -99 -196 -231 -310 -289 -158 -79 -350 -92 -488 -33 -107 47
-307 245 -367 364 -41 83 -54 223 -18 201 8 -5 9 -1 5 10 -4 10 -3 15 3 11 6
-4 19 4 30 17 22 27 27 55 7 42 -7 -5 -4 -1 6 9 19 17 18 17 -11 17 -20 0 -44
-12 -72 -35z"/>
<path d="M1085 1185 c-14 -68 -15 -80 -6 -65 9 16 22 90 16 90 -3 0 -7 -11
-10 -25z"/>
</g>
</svg>
